#!OML:ASF F:\VICON\USERDATA\INSTALL\rory3\rory3.ASF
:FULLY-SPECIFIED
:DEGREES
101
root -0.524063 17.6136 16.4357 3.42304 -6.50887 -0.260008
lowerback 17.1577 -0.083456 -0.430742
upperback -0.592946 -0.000601346 1.92111
thorax -10.3151 0.0827685 2.34203
lowerneck -20.2455 -2.55302 -2.09752
upperneck 7.93409 -3.10626 1.87222
head 5.71131 -1.4277 0.606431
rclavicle -7.35503e-015 1.39149e-014
rhumerus -52.5498 7.74809 -97.5513
rradius 107.905
rwrist -11.8605
rhand -19.6819 36.357
rfingers 7.12502
rthumb 6.64695 6.48128
lclavicle -7.35503e-015 1.39149e-014
lhumerus -44.2127 -16.8162 99.9525
lradius 103.758
lwrist 33.5704
lhand -31.4325 2.82266
lfingers 7.12502
lthumb -4.70077 32.7505
rfemur -31.9519 4.59011 29.5216
rtibia 41.3378
rfoot -8.22663 0.661205
rtoes 13.9106
lfemur -0.500694 4.56248 -19.3844
ltibia 85.3971
lfoot 25.6012 -14.2481
ltoes -3.02248
102
root -0.549201 17.5043 16.9284 3.43967 -6.75637 -1.18462
lowerback 17.6897 0.0241781 0.280478
upperback -0.562934 0.324517 2.20968
thorax -10.5983 0.209328 2.17399
lowerneck -20.624 -2.51853 -2.05696
upperneck 8.28442 -3.04593 1.70735
head 5.87825 -1.40719 0.548192
rclavicle -4.47266e-015 3.02153e-014
rhumerus -50.7337 8.38624 -97.8142
rradius 107.292
rwrist -12.2338
rhand -19.9136 36.1127
rfingers 7.12502
rthumb 6.42322 6.23009
lclavicle -4.47266e-015 3.02153e-014
lhumerus -44.8032 -16.5827 99.9864
lradius 102.662
lwrist 33.6483
lhand -31.4866 6.5554
lfingers 7.12502
lthumb -4.75298 36.4821
rfemur -31.3932 5.90958 30.8397
rtibia 43.6715
rfoot -10.3512 -2.03883
rtoes 11.1077
lfemur -2.67955 5.80383 -16.9984
ltibia 89.2142
lfoot 24.7071 -14.0341
ltoes -3.82208
103
root -0.573555 17.4018 17.4243 3.72392 -7.0526 -2.3612
lowerback 17.6734 0.149837 1.32376
upperback -0.39785 0.734254 2.50002
thorax -10.4118 0.354332 1.78687
lowerneck -21.3021 -2.54936 -1.9659
upperneck 8.54272 -3.07221 1.49774
head 6.06271 -1.42993 0.455418
rclavicle -1.55052e-014 -1.43125e-014
rhumerus -48.4803 8.99434 -98.0164
rradius 106.721
rwrist -12.6852
rhand -20.014 36.0601
rfingers 7.12502
rthumb 6.32633 6.17453
lclavicle -1.55052e-014 -1.43125e-014
lhumerus -45.4188 -16.5092 100.105
lradius 101.667
lwrist 33.2079
lhand -31.2464 6.03791
lfingers 7.12502
lthumb -4.52105 35.9697
rfemur -30.5495 7.34311 32.3521
rtibia 45.4343
rfoot -12.5001 -4.77863
rtoes 7.76154
lfemur -5.22486 7.03229 -14.4447
ltibia 92.8273
lfoot 23.7263 -14.5372
ltoes -3.97154
104
root -0.58884 17.3136 17.916 4.25351 -7.11461 -3.67454
lowerback 17.4954 0.18562 2.50343
upperback -0.384366 1.05576 2.85984
thorax -10.2914 0.455176 1.42475
lowerneck -21.5775 -2.53476 -1.73845
upperneck 8.47841 -3.07545 1.2523
head 6.07694 -1.44351 0.337434
rclavicle 7.95139e-016 7.55382e-015
rhumerus -46.3474 9.74486 -98.1941
rradius 106.29
rwrist -13.0111
rhand -20.0304 35.8243
rfingers 7.12502
rthumb 6.3105 5.93827
lclavicle 7.95139e-016 7.55382e-015
lhumerus -46.2396 -16.4486 100.257
lradius 100.709
lwrist 32.9334
lhand -31.1636 2.40533
lfingers 7.12502
lthumb -4.44109 32.3388
rfemur -29.6292 8.83481 33.8202
rtibia 46.8448
rfoot -14.6195 -6.92077
rtoes 6.84819
lfemur -8.06225 8.01671 -11.9188
ltibia 96.1387
lfoot 21.8711 -15.4824
ltoes -3.96872
105
root -0.599956 17.2409 18.3948 4.39948 -6.75301 -4.54992
lowerback 17.8338 0.0731373 3.31912
upperback -0.423263 1.12561 3.14793
thorax -10.5218 0.451578 1.26075
lowerneck -21.5798 -2.45961 -1.75386
upperneck 8.47381 -2.971 1.25497
head 6.07463 -1.39324 0.352537
rclavicle -1.5207e-014 -1.23246e-014
rhumerus -44.2612 10.7173 -98.3676
rradius 105.974
rwrist -12.9563
rhand -20.173 35.0495
rfingers 7.12502
rthumb 6.17278 5.15948
lclavicle -1.5207e-014 -1.23246e-014
lhumerus -47.3114 -16.1878 100.386
lradius 99.9891
lwrist 32.6634
lhand -31.5889 -1.10751
lfingers 7.12502
lthumb -4.85176 28.8169
rfemur -28.3127 9.75895 34.8643
rtibia 47.8856
rfoot -16.5035 -8.7887
rtoes 5.84938
lfemur -10.8056 8.42876 -10.0571
ltibia 99.0324
lfoot 19.7662 -16.2602
ltoes -2.709
106
root -0.624194 17.1849 18.8773 4.27879 -6.32167 -4.75406
lowerback 18.2591 -0.0222169 3.29377
upperback -0.482726 1.04291 3.34468
thorax -10.8366 0.417641 1.51718
lowerneck -21.1453 -2.36371 -2.0142
upperneck 8.24473 -2.79025 1.35076
head 5.93563 -1.30917 0.450254
rclavicle -1.11319e-014 -6.75868e-015
rhumerus -42.5307 11.8396 -98.5117
rradius 106.133
rwrist -12.5878
rhand -19.9175 34.6838
rfingers 7.12502
rthumb 6.41948 4.80109
lclavicle -1.11319e-014 -6.75868e-015
lhumerus -48.6664 -15.6772 100.6
lradius 99.622
lwrist 32.6644
lhand -31.8903 -2.17187
lfingers 7.12502
lthumb -5.14285 27.7457
rfemur -26.6997 10.2252 35.3398
rtibia 48.5993
rfoot -18.1269 -10.4424
rtoes 4.09389
lfemur -13.429 8.65406 -9.10353
ltibia 101.365
lfoot 17.4328 -17.0795
ltoes -3.39206
107
root -0.652705 17.1453 19.3806 4.48913 -6.10865 -4.93928
lowerback 17.9275 0.0172846 3.26296
upperback -0.554891 1.08973 3.49372
thorax -10.7328 0.447346 1.68546
lowerneck -20.5429 -2.36945 -2.2644
upperneck 7.88011 -2.7365 1.32142
head 5.72659 -1.29732 0.493705
rclavicle 8.74653e-015 7.95139e-015
rhumerus -41.4474 12.4301 -98.5908
rradius 106.933
rwrist -12.0293
rhand -18.7467 34.9709
rfingers 7.12502
rthumb 7.54965 5.12562
lclavicle 8.74653e-015 7.95139e-015
lhumerus -50.1664 -15.3668 100.902
lradius 99.4758
lwrist 32.7273
lhand -31.7786 1.06417
lfingers 7.12502
lthumb -5.03495 30.9844
rfemur -25.126 10.6781 35.8143
rtibia 48.9256
rfoot -19.8996 -11.494
rtoes 2.50649
lfemur -16.3862 9.13773 -8.29579
ltibia 103.245
lfoot 15.897 -17.1496
ltoes -1.25984
108
root -0.67032 17.1169 19.9205 5.16313 -6.16463 -4.98741
lowerback 16.4618 0.216216 3.21905
upperback -0.519811 1.26573 3.57415
thorax -9.86072 0.542835 1.745
lowerneck -20.3798 -2.37379 -2.3742
upperneck 7.87473 -2.69031 1.11764
head 5.69701 -1.29598 0.45231
rclavicle 6.95746e-015 -1.11319e-014
rhumerus -40.4338 12.6741 -98.5683
rradius 107.786
rwrist -11.5066
rhand -17.8357 34.724
rfingers 7.12502
rthumb 8.4289 4.91219
lclavicle 6.95746e-015 -1.11319e-014
lhumerus -51.3732 -15.278 101.115
lradius 99.4865
lwrist 32.6321
lhand -31.7679 3.81952
lfingers 7.12502
lthumb -5.0246 33.7399
rfemur -23.4874 11.0531 36.0305
rtibia 48.8433
rfoot -21.5172 -12.4167
rtoes 1.95314
lfemur -19.5384 9.78965 -8.09821
ltibia 104.562
lfoot 14.3465 -16.7948
ltoes 2.21272
109
root -0.663617 17.1159 20.471 5.57096 -5.91109 -4.67204
lowerback 15.1775 0.320848 3.25037
upperback -0.458812 1.32626 3.50493
thorax -9.05866 0.575612 1.6343
lowerneck -20.3917 -2.3565 -2.35644
upperneck 8.05685 -2.63117 0.805511
head 5.75155 -1.29251 0.354715
rclavicle 2.08724e-015 -3.4191e-014
rhumerus -39.2278 12.9108 -98.4768
rradius 108.54
rwrist -11.4237
rhand -17.7499 34.5136
rfingers 7.12502
rthumb 8.51168 4.70518
lclavicle 2.08724e-015 -3.4191e-014
lhumerus -52.576 -15.587 101.595
lradius 99.8153
lwrist 33.3164
lhand -31.4144 3.38853
lfingers 7.12502
lthumb -4.68327 33.3168
rfemur -21.3702 10.7769 35.7208
rtibia 48.3481
rfoot -22.22 -13.5259
rtoes 3.87219
lfemur -22.2289 9.93485 -8.80696
ltibia 105.306
lfoot 11.9494 -15.6569
ltoes 2.92421
110
root -0.678445 17.1397 20.9563 5.70132 -4.19133 -4.37247
lowerback 15.202 -0.0167062 3.31442
upperback -0.706317 0.907628 3.52658
thorax -9.34112 0.370309 1.72121
lowerneck -20.3953 -2.43677 -2.35207
upperneck 8.45883 -2.69202 0.446036
head 5.87692 -1.35271 0.229716
rclavicle 5.46658e-015 -9.54166e-015
rhumerus -38.2866 12.9446 -98.4107
rradius 109.637
rwrist -11.6698
rhand -18.325 35.3476
rfingers 7.12502
rthumb 7.95666 5.51731
lclavicle 5.46658e-015 -9.54166e-015
lhumerus -53.7661 -15.9345 102.039
lradius 100.078
lwrist 33.4852
lhand -31.1209 3.22921
lfingers 7.12502
lthumb -4.3999 33.1635
rfemur -19.4411 9.21329 35.7571
rtibia 47.4839
rfoot -22.31 -14.9294
rtoes 3.46502
lfemur -25.7283 8.50184 -9.36226
ltibia 105.898
lfoot 10.1319 -15.0261
ltoes -0.673098
111
root -0.730679 17.1623 21.3787 5.07785 -1.07867 -4.32544
lowerback 16.7364 -0.770978 3.45057
upperback -0.970432 0.0613129 3.72308
thorax -10.5089 -0.0395025 2.09373
lowerneck -20.3589 -2.61483 -2.45726
upperneck 8.8979 -2.86849 0.195343
head 6.01264 -1.46473 0.144059
rclavicle 3.01159e-014 1.51076e-014
rhumerus -37.893 12.8038 -98.5148
rradius 111.434
rwrist -12.6192
rhand -19.3354 36.8563
rfingers 7.12502
rthumb 6.98135 6.99144
lclavicle 3.01159e-014 1.51076e-014
lhumerus -55.0978 -16.5062 102.581
lradius 100.628
lwrist 34.2509
lhand -30.0409 2.21476
lfingers 7.12502
lthumb -3.35699 32.1681
rfemur -17.0451 6.89379 36.5004
rtibia 46.3687
rfoot -22.4684 -16.3701
rtoes 0.0912358
lfemur -29.4328 5.67511 -9.21228
ltibia 106.316
lfoot 8.92422 -15.2765
ltoes -5.91384
